<mxfile host="Electron" modified="2024-07-09T10:51:37.402Z" agent="Mozilla/5.0 (Windows NT 10.0; Win64; x64) AppleWebKit/537.36 (KHTML, like Gecko) draw.io/24.4.0 Chrome/120.0.6099.109 Electron/28.1.0 Safari/537.36" etag="Esw93cvwFMT2T788HbWS" version="24.4.0" type="device">
  <diagram name="Version 1" id="WGKEXsAle_euEc1oPHN3">
    <mxGraphModel dx="1001" dy="759" grid="1" gridSize="10" guides="1" tooltips="1" connect="1" arrows="1" fold="1" page="1" pageScale="1" pageWidth="850" pageHeight="1100" math="0" shadow="0">
      <root>
        <mxCell id="0" />
        <mxCell id="1" parent="0" />
        <mxCell id="69LRVkY6xrtAyv0hCVl5-1" value="Document" style="swimlane;fontStyle=1;align=center;verticalAlign=top;childLayout=stackLayout;horizontal=1;startSize=26;horizontalStack=0;resizeParent=1;resizeParentMax=0;resizeLast=0;collapsible=1;marginBottom=0;whiteSpace=wrap;html=1;" vertex="1" parent="1">
          <mxGeometry x="40" y="360" width="280" height="138" as="geometry" />
        </mxCell>
        <mxCell id="69LRVkY6xrtAyv0hCVl5-2" value="+ Url: string" style="text;strokeColor=none;fillColor=none;align=left;verticalAlign=top;spacingLeft=4;spacingRight=4;overflow=hidden;rotatable=0;points=[[0,0.5],[1,0.5]];portConstraint=eastwest;whiteSpace=wrap;html=1;" vertex="1" parent="69LRVkY6xrtAyv0hCVl5-1">
          <mxGeometry y="26" width="280" height="26" as="geometry" />
        </mxCell>
        <mxCell id="69LRVkY6xrtAyv0hCVl5-3" value="" style="line;strokeWidth=1;fillColor=none;align=left;verticalAlign=middle;spacingTop=-1;spacingLeft=3;spacingRight=3;rotatable=0;labelPosition=right;points=[];portConstraint=eastwest;strokeColor=inherit;" vertex="1" parent="69LRVkY6xrtAyv0hCVl5-1">
          <mxGeometry y="52" width="280" height="8" as="geometry" />
        </mxCell>
        <mxCell id="69LRVkY6xrtAyv0hCVl5-4" value="+ Document(url: string)" style="text;strokeColor=none;fillColor=none;align=left;verticalAlign=top;spacingLeft=4;spacingRight=4;overflow=hidden;rotatable=0;points=[[0,0.5],[1,0.5]];portConstraint=eastwest;whiteSpace=wrap;html=1;" vertex="1" parent="69LRVkY6xrtAyv0hCVl5-1">
          <mxGeometry y="60" width="280" height="26" as="geometry" />
        </mxCell>
        <mxCell id="69LRVkY6xrtAyv0hCVl5-5" value="+ Update(url: string): void" style="text;strokeColor=none;fillColor=none;align=left;verticalAlign=top;spacingLeft=4;spacingRight=4;overflow=hidden;rotatable=0;points=[[0,0.5],[1,0.5]];portConstraint=eastwest;whiteSpace=wrap;html=1;" vertex="1" parent="69LRVkY6xrtAyv0hCVl5-1">
          <mxGeometry y="86" width="280" height="26" as="geometry" />
        </mxCell>
        <mxCell id="69LRVkY6xrtAyv0hCVl5-6" value="- UpdateUrl(url: string): void" style="text;strokeColor=none;fillColor=none;align=left;verticalAlign=top;spacingLeft=4;spacingRight=4;overflow=hidden;rotatable=0;points=[[0,0.5],[1,0.5]];portConstraint=eastwest;whiteSpace=wrap;html=1;" vertex="1" parent="69LRVkY6xrtAyv0hCVl5-1">
          <mxGeometry y="112" width="280" height="26" as="geometry" />
        </mxCell>
        <mxCell id="69LRVkY6xrtAyv0hCVl5-17" style="edgeStyle=orthogonalEdgeStyle;rounded=0;orthogonalLoop=1;jettySize=auto;html=1;" edge="1" parent="1" source="69LRVkY6xrtAyv0hCVl5-7" target="69LRVkY6xrtAyv0hCVl5-1">
          <mxGeometry relative="1" as="geometry" />
        </mxCell>
        <mxCell id="69LRVkY6xrtAyv0hCVl5-18" value="_enclosedDocuments:&lt;br&gt;List&amp;lt;Document&amp;gt;" style="edgeLabel;html=1;align=center;verticalAlign=middle;resizable=0;points=[];" vertex="1" connectable="0" parent="69LRVkY6xrtAyv0hCVl5-17">
          <mxGeometry x="0.0099" y="-1" relative="1" as="geometry">
            <mxPoint as="offset" />
          </mxGeometry>
        </mxCell>
        <mxCell id="69LRVkY6xrtAyv0hCVl5-7" value="Transaction" style="swimlane;fontStyle=1;align=center;verticalAlign=top;childLayout=stackLayout;horizontal=1;startSize=26;horizontalStack=0;resizeParent=1;resizeParentMax=0;resizeLast=0;collapsible=1;marginBottom=0;whiteSpace=wrap;html=1;" vertex="1" parent="1">
          <mxGeometry x="520" y="360" width="280" height="344" as="geometry" />
        </mxCell>
        <mxCell id="69LRVkY6xrtAyv0hCVl5-12" value="+ Name: string" style="text;strokeColor=none;fillColor=none;align=left;verticalAlign=top;spacingLeft=4;spacingRight=4;overflow=hidden;rotatable=0;points=[[0,0.5],[1,0.5]];portConstraint=eastwest;whiteSpace=wrap;html=1;" vertex="1" parent="69LRVkY6xrtAyv0hCVl5-7">
          <mxGeometry y="26" width="280" height="26" as="geometry" />
        </mxCell>
        <mxCell id="69LRVkY6xrtAyv0hCVl5-11" value="+ Amount: decimal" style="text;strokeColor=none;fillColor=none;align=left;verticalAlign=top;spacingLeft=4;spacingRight=4;overflow=hidden;rotatable=0;points=[[0,0.5],[1,0.5]];portConstraint=eastwest;whiteSpace=wrap;html=1;" vertex="1" parent="69LRVkY6xrtAyv0hCVl5-7">
          <mxGeometry y="52" width="280" height="26" as="geometry" />
        </mxCell>
        <mxCell id="69LRVkY6xrtAyv0hCVl5-8" value="+ DateOfTransaction: DateTime" style="text;strokeColor=none;fillColor=none;align=left;verticalAlign=top;spacingLeft=4;spacingRight=4;overflow=hidden;rotatable=0;points=[[0,0.5],[1,0.5]];portConstraint=eastwest;whiteSpace=wrap;html=1;" vertex="1" parent="69LRVkY6xrtAyv0hCVl5-7">
          <mxGeometry y="78" width="280" height="26" as="geometry" />
        </mxCell>
        <mxCell id="69LRVkY6xrtAyv0hCVl5-9" value="" style="line;strokeWidth=1;fillColor=none;align=left;verticalAlign=middle;spacingTop=-1;spacingLeft=3;spacingRight=3;rotatable=0;labelPosition=right;points=[];portConstraint=eastwest;strokeColor=inherit;" vertex="1" parent="69LRVkY6xrtAyv0hCVl5-7">
          <mxGeometry y="104" width="280" height="8" as="geometry" />
        </mxCell>
        <mxCell id="69LRVkY6xrtAyv0hCVl5-10" value="+ Transaction(name: string, amount: decimal, dateOfTransaction: DateTime)" style="text;strokeColor=none;fillColor=none;align=left;verticalAlign=top;spacingLeft=4;spacingRight=4;overflow=hidden;rotatable=0;points=[[0,0.5],[1,0.5]];portConstraint=eastwest;whiteSpace=wrap;html=1;" vertex="1" parent="69LRVkY6xrtAyv0hCVl5-7">
          <mxGeometry y="112" width="280" height="58" as="geometry" />
        </mxCell>
        <mxCell id="69LRVkY6xrtAyv0hCVl5-13" value="+ Update(name: string, amount: decimal, dateOfTransaction: DateTime): void" style="text;strokeColor=none;fillColor=none;align=left;verticalAlign=top;spacingLeft=4;spacingRight=4;overflow=hidden;rotatable=0;points=[[0,0.5],[1,0.5]];portConstraint=eastwest;whiteSpace=wrap;html=1;" vertex="1" parent="69LRVkY6xrtAyv0hCVl5-7">
          <mxGeometry y="170" width="280" height="60" as="geometry" />
        </mxCell>
        <mxCell id="69LRVkY6xrtAyv0hCVl5-14" value="- UpdateName(name: string): void" style="text;strokeColor=none;fillColor=none;align=left;verticalAlign=top;spacingLeft=4;spacingRight=4;overflow=hidden;rotatable=0;points=[[0,0.5],[1,0.5]];portConstraint=eastwest;whiteSpace=wrap;html=1;" vertex="1" parent="69LRVkY6xrtAyv0hCVl5-7">
          <mxGeometry y="230" width="280" height="26" as="geometry" />
        </mxCell>
        <mxCell id="69LRVkY6xrtAyv0hCVl5-15" value="- UpdateAmount(amount: decimal): void" style="text;strokeColor=none;fillColor=none;align=left;verticalAlign=top;spacingLeft=4;spacingRight=4;overflow=hidden;rotatable=0;points=[[0,0.5],[1,0.5]];portConstraint=eastwest;whiteSpace=wrap;html=1;" vertex="1" parent="69LRVkY6xrtAyv0hCVl5-7">
          <mxGeometry y="256" width="280" height="44" as="geometry" />
        </mxCell>
        <mxCell id="69LRVkY6xrtAyv0hCVl5-16" value="- UpdateDateOfTransaction(dateOfTransaction: DateTime)" style="text;strokeColor=none;fillColor=none;align=left;verticalAlign=top;spacingLeft=4;spacingRight=4;overflow=hidden;rotatable=0;points=[[0,0.5],[1,0.5]];portConstraint=eastwest;whiteSpace=wrap;html=1;" vertex="1" parent="69LRVkY6xrtAyv0hCVl5-7">
          <mxGeometry y="300" width="280" height="44" as="geometry" />
        </mxCell>
        <mxCell id="69LRVkY6xrtAyv0hCVl5-19" value="*" style="text;html=1;align=center;verticalAlign=middle;resizable=0;points=[];autosize=1;strokeColor=none;fillColor=none;" vertex="1" parent="1">
          <mxGeometry x="320" y="400" width="30" height="30" as="geometry" />
        </mxCell>
        <mxCell id="69LRVkY6xrtAyv0hCVl5-20" value="1" style="text;html=1;align=center;verticalAlign=middle;resizable=0;points=[];autosize=1;strokeColor=none;fillColor=none;" vertex="1" parent="1">
          <mxGeometry x="490" y="530" width="30" height="30" as="geometry" />
        </mxCell>
        <mxCell id="69LRVkY6xrtAyv0hCVl5-30" style="edgeStyle=orthogonalEdgeStyle;rounded=0;orthogonalLoop=1;jettySize=auto;html=1;endArrow=block;endFill=0;" edge="1" parent="1" source="69LRVkY6xrtAyv0hCVl5-25" target="69LRVkY6xrtAyv0hCVl5-7">
          <mxGeometry relative="1" as="geometry" />
        </mxCell>
        <mxCell id="69LRVkY6xrtAyv0hCVl5-25" value="&lt;b&gt;Expense&lt;/b&gt;" style="swimlane;fontStyle=0;childLayout=stackLayout;horizontal=1;startSize=26;fillColor=none;horizontalStack=0;resizeParent=1;resizeParentMax=0;resizeLast=0;collapsible=1;marginBottom=0;whiteSpace=wrap;html=1;" vertex="1" parent="1">
          <mxGeometry x="520" y="770" width="280" height="52" as="geometry" />
        </mxCell>
        <mxCell id="69LRVkY6xrtAyv0hCVl5-31" style="edgeStyle=orthogonalEdgeStyle;rounded=0;orthogonalLoop=1;jettySize=auto;html=1;endArrow=block;endFill=0;" edge="1" parent="1" source="69LRVkY6xrtAyv0hCVl5-29" target="69LRVkY6xrtAyv0hCVl5-7">
          <mxGeometry relative="1" as="geometry">
            <Array as="points">
              <mxPoint x="840" y="916" />
              <mxPoint x="840" y="532" />
            </Array>
          </mxGeometry>
        </mxCell>
        <mxCell id="69LRVkY6xrtAyv0hCVl5-29" value="&lt;b&gt;Revenue&lt;/b&gt;" style="swimlane;fontStyle=0;childLayout=stackLayout;horizontal=1;startSize=26;fillColor=none;horizontalStack=0;resizeParent=1;resizeParentMax=0;resizeLast=0;collapsible=1;marginBottom=0;whiteSpace=wrap;html=1;" vertex="1" parent="1">
          <mxGeometry x="520" y="890" width="280" height="52" as="geometry" />
        </mxCell>
        <mxCell id="69LRVkY6xrtAyv0hCVl5-32" value="Tag" style="swimlane;fontStyle=1;align=center;verticalAlign=top;childLayout=stackLayout;horizontal=1;startSize=26;horizontalStack=0;resizeParent=1;resizeParentMax=0;resizeLast=0;collapsible=1;marginBottom=0;whiteSpace=wrap;html=1;" vertex="1" parent="1">
          <mxGeometry x="40" y="560" width="280" height="138" as="geometry" />
        </mxCell>
        <mxCell id="69LRVkY6xrtAyv0hCVl5-33" value="+ Name: string" style="text;strokeColor=none;fillColor=none;align=left;verticalAlign=top;spacingLeft=4;spacingRight=4;overflow=hidden;rotatable=0;points=[[0,0.5],[1,0.5]];portConstraint=eastwest;whiteSpace=wrap;html=1;" vertex="1" parent="69LRVkY6xrtAyv0hCVl5-32">
          <mxGeometry y="26" width="280" height="26" as="geometry" />
        </mxCell>
        <mxCell id="69LRVkY6xrtAyv0hCVl5-34" value="" style="line;strokeWidth=1;fillColor=none;align=left;verticalAlign=middle;spacingTop=-1;spacingLeft=3;spacingRight=3;rotatable=0;labelPosition=right;points=[];portConstraint=eastwest;strokeColor=inherit;" vertex="1" parent="69LRVkY6xrtAyv0hCVl5-32">
          <mxGeometry y="52" width="280" height="8" as="geometry" />
        </mxCell>
        <mxCell id="69LRVkY6xrtAyv0hCVl5-35" value="+ Tag(name: string)" style="text;strokeColor=none;fillColor=none;align=left;verticalAlign=top;spacingLeft=4;spacingRight=4;overflow=hidden;rotatable=0;points=[[0,0.5],[1,0.5]];portConstraint=eastwest;whiteSpace=wrap;html=1;" vertex="1" parent="69LRVkY6xrtAyv0hCVl5-32">
          <mxGeometry y="60" width="280" height="26" as="geometry" />
        </mxCell>
        <mxCell id="69LRVkY6xrtAyv0hCVl5-36" value="+ Update(name: string)" style="text;strokeColor=none;fillColor=none;align=left;verticalAlign=top;spacingLeft=4;spacingRight=4;overflow=hidden;rotatable=0;points=[[0,0.5],[1,0.5]];portConstraint=eastwest;whiteSpace=wrap;html=1;" vertex="1" parent="69LRVkY6xrtAyv0hCVl5-32">
          <mxGeometry y="86" width="280" height="26" as="geometry" />
        </mxCell>
        <mxCell id="69LRVkY6xrtAyv0hCVl5-37" value="- UpdateName(name: string)" style="text;strokeColor=none;fillColor=none;align=left;verticalAlign=top;spacingLeft=4;spacingRight=4;overflow=hidden;rotatable=0;points=[[0,0.5],[1,0.5]];portConstraint=eastwest;whiteSpace=wrap;html=1;" vertex="1" parent="69LRVkY6xrtAyv0hCVl5-32">
          <mxGeometry y="112" width="280" height="26" as="geometry" />
        </mxCell>
        <mxCell id="69LRVkY6xrtAyv0hCVl5-38" style="edgeStyle=orthogonalEdgeStyle;rounded=0;orthogonalLoop=1;jettySize=auto;html=1;endArrow=none;endFill=0;startArrow=classic;startFill=1;" edge="1" parent="1" source="69LRVkY6xrtAyv0hCVl5-35" target="69LRVkY6xrtAyv0hCVl5-7">
          <mxGeometry relative="1" as="geometry">
            <Array as="points">
              <mxPoint x="470" y="633" />
              <mxPoint x="470" y="633" />
            </Array>
          </mxGeometry>
        </mxCell>
        <mxCell id="69LRVkY6xrtAyv0hCVl5-41" value="_tags:&lt;br&gt;List&amp;lt;Tag&amp;gt;" style="edgeLabel;html=1;align=center;verticalAlign=middle;resizable=0;points=[];" vertex="1" connectable="0" parent="69LRVkY6xrtAyv0hCVl5-38">
          <mxGeometry x="-0.11" relative="1" as="geometry">
            <mxPoint x="11" as="offset" />
          </mxGeometry>
        </mxCell>
        <mxCell id="69LRVkY6xrtAyv0hCVl5-39" value="*" style="text;html=1;align=center;verticalAlign=middle;resizable=0;points=[];autosize=1;strokeColor=none;fillColor=none;" vertex="1" parent="1">
          <mxGeometry x="320" y="600" width="30" height="30" as="geometry" />
        </mxCell>
        <mxCell id="69LRVkY6xrtAyv0hCVl5-40" value="*" style="text;html=1;align=center;verticalAlign=middle;resizable=0;points=[];autosize=1;strokeColor=none;fillColor=none;" vertex="1" parent="1">
          <mxGeometry x="490" y="640" width="30" height="30" as="geometry" />
        </mxCell>
        <mxCell id="69LRVkY6xrtAyv0hCVl5-48" style="edgeStyle=orthogonalEdgeStyle;rounded=0;orthogonalLoop=1;jettySize=auto;html=1;entryX=0.5;entryY=0;entryDx=0;entryDy=0;" edge="1" parent="1" source="69LRVkY6xrtAyv0hCVl5-42" target="69LRVkY6xrtAyv0hCVl5-7">
          <mxGeometry relative="1" as="geometry" />
        </mxCell>
        <mxCell id="69LRVkY6xrtAyv0hCVl5-53" value="_transactions:&lt;br&gt;List&amp;lt;Transaction&amp;gt;" style="edgeLabel;html=1;align=center;verticalAlign=middle;resizable=0;points=[];" vertex="1" connectable="0" parent="69LRVkY6xrtAyv0hCVl5-48">
          <mxGeometry x="0.0047" relative="1" as="geometry">
            <mxPoint y="-9" as="offset" />
          </mxGeometry>
        </mxCell>
        <mxCell id="69LRVkY6xrtAyv0hCVl5-42" value="Book" style="swimlane;fontStyle=1;align=center;verticalAlign=top;childLayout=stackLayout;horizontal=1;startSize=26;horizontalStack=0;resizeParent=1;resizeParentMax=0;resizeLast=0;collapsible=1;marginBottom=0;whiteSpace=wrap;html=1;" vertex="1" parent="1">
          <mxGeometry x="520" y="80" width="280" height="138" as="geometry" />
        </mxCell>
        <mxCell id="69LRVkY6xrtAyv0hCVl5-43" value="+ Name: string" style="text;strokeColor=none;fillColor=none;align=left;verticalAlign=top;spacingLeft=4;spacingRight=4;overflow=hidden;rotatable=0;points=[[0,0.5],[1,0.5]];portConstraint=eastwest;whiteSpace=wrap;html=1;" vertex="1" parent="69LRVkY6xrtAyv0hCVl5-42">
          <mxGeometry y="26" width="280" height="26" as="geometry" />
        </mxCell>
        <mxCell id="69LRVkY6xrtAyv0hCVl5-44" value="" style="line;strokeWidth=1;fillColor=none;align=left;verticalAlign=middle;spacingTop=-1;spacingLeft=3;spacingRight=3;rotatable=0;labelPosition=right;points=[];portConstraint=eastwest;strokeColor=inherit;" vertex="1" parent="69LRVkY6xrtAyv0hCVl5-42">
          <mxGeometry y="52" width="280" height="8" as="geometry" />
        </mxCell>
        <mxCell id="69LRVkY6xrtAyv0hCVl5-45" value="+ Book(name: string)" style="text;strokeColor=none;fillColor=none;align=left;verticalAlign=top;spacingLeft=4;spacingRight=4;overflow=hidden;rotatable=0;points=[[0,0.5],[1,0.5]];portConstraint=eastwest;whiteSpace=wrap;html=1;" vertex="1" parent="69LRVkY6xrtAyv0hCVl5-42">
          <mxGeometry y="60" width="280" height="26" as="geometry" />
        </mxCell>
        <mxCell id="69LRVkY6xrtAyv0hCVl5-46" value="+ Update(name: string)" style="text;strokeColor=none;fillColor=none;align=left;verticalAlign=top;spacingLeft=4;spacingRight=4;overflow=hidden;rotatable=0;points=[[0,0.5],[1,0.5]];portConstraint=eastwest;whiteSpace=wrap;html=1;" vertex="1" parent="69LRVkY6xrtAyv0hCVl5-42">
          <mxGeometry y="86" width="280" height="26" as="geometry" />
        </mxCell>
        <mxCell id="69LRVkY6xrtAyv0hCVl5-47" value="- UpdateName(name: string)" style="text;strokeColor=none;fillColor=none;align=left;verticalAlign=top;spacingLeft=4;spacingRight=4;overflow=hidden;rotatable=0;points=[[0,0.5],[1,0.5]];portConstraint=eastwest;whiteSpace=wrap;html=1;" vertex="1" parent="69LRVkY6xrtAyv0hCVl5-42">
          <mxGeometry y="112" width="280" height="26" as="geometry" />
        </mxCell>
        <mxCell id="69LRVkY6xrtAyv0hCVl5-50" value="1" style="text;html=1;align=center;verticalAlign=middle;resizable=0;points=[];autosize=1;strokeColor=none;fillColor=none;" vertex="1" parent="1">
          <mxGeometry x="660" y="218" width="30" height="30" as="geometry" />
        </mxCell>
        <mxCell id="69LRVkY6xrtAyv0hCVl5-51" value="*" style="text;html=1;align=center;verticalAlign=middle;resizable=0;points=[];autosize=1;strokeColor=none;fillColor=none;" vertex="1" parent="1">
          <mxGeometry x="630" y="330" width="30" height="30" as="geometry" />
        </mxCell>
      </root>
    </mxGraphModel>
  </diagram>
</mxfile>
